Coordinates
version=1
nRows=16
nColumns=36
inDegrees=yes

Units are S.I. units (second, meters, Newtons, ...)
If the header above contains a line with 'inDegrees', this indicates whether rotational values are in degrees (yes) or radians (no).

endheader
time	pelvis_tilt	pelvis_list	pelvis_rotation	pelvis_tx	pelvis_ty	pelvis_tz	hip_flexion_r	hip_adduction_r	hip_rotation_r	knee_angle_r	knee_angle_r_beta	ankle_angle_r	subtalar_angle_r	mtp_angle_r	hip_flexion_l	hip_adduction_l	hip_rotation_l	knee_angle_l	knee_angle_l_beta	ankle_angle_l	subtalar_angle_l	mtp_angle_l	lumbar_extension	lumbar_bending	lumbar_rotation	arm_flex_r	arm_add_r	arm_rot_r	elbow_flex_r	pro_sup_r	arm_flex_l	arm_add_l	arm_rot_l	elbow_flex_l	pro_sup_l
      1.29000000	    -27.46242031	      1.61296346	      1.10068563	     -0.32534928	      0.74546272	     -0.55583247	     80.19063088	     -6.03090272	      4.02112307	     77.18358053	      1.34710761	     27.11580419	     -5.05738679	     -7.38570941	     76.10564225	     -4.43402281	      2.58375449	     75.34908056	      1.31508954	     24.83050995	    -12.97088713	     -7.38570941	    -33.50209177	     -1.83502710	     -1.30335935	     90.73476425	      4.00830077	     13.06144646	     97.77316703	    100.35527364	     92.93687044	     -4.06927459	     22.30049678	     95.23408448	    112.13699445
      1.30000000	    -26.48088523	      1.81928455	      1.01101171	     -0.31909055	      0.75147588	     -0.55537526	     78.39551238	     -6.14959503	      3.98370361	     76.74194070	      1.33939954	     27.08905922	     -5.07092935	     -7.38686254	     74.08592493	     -4.33335909	      2.45513561	     74.67361227	      1.30330040	     24.79764514	    -13.06822370	     -7.38686254	    -33.35062330	     -1.72222387	     -1.15390992	     88.48790349	      3.04980972	     13.16402606	    100.76303515	    100.51272823	     90.50943252	     -5.00409666	     22.71119265	     98.74638143	    112.44916772
      1.31000000	    -25.46228632	      2.23905178	      0.97894103	     -0.31237150	      0.75833447	     -0.55517736	     76.49599983	     -6.47606812	      4.05802808	     76.19707015	      1.32988975	     27.13924429	     -5.03485180	     -7.38857024	     71.82796657	     -4.01846084	      2.12735189	     73.73967110	      1.28700005	     24.65462084	    -13.34327772	     -7.38857024	    -33.04793954	     -1.74178043	     -1.21558932	     85.78610918	      1.84680444	     13.38896920	    104.00207066	    100.71603462	     87.53152530	     -6.35647380	     23.20145945	    102.77275321	    112.74447504
      1.32000000	    -24.46935177	      2.51024264	      0.92003842	     -0.30552205	      0.76589045	     -0.55453782	     74.44785880	     -6.66503213	      3.96098789	     75.38680052	      1.31574788	     27.06847272	     -5.05708279	     -7.38939762	     69.52426886	     -3.81623899	      1.93032862	     72.60234957	      1.26715004	     24.42086276	    -13.45222230	     -7.38939762	    -32.49473889	     -1.71103188	     -1.11282264	     82.62745950	      0.29766316	     13.47871564	    107.38744785	    100.96595926	     84.11094177	     -7.83840834	     23.77802339	    106.68456713	    113.08458855
      1.33000000	    -23.73709992	      2.68404187	      0.79938148	     -0.29862782	      0.77342061	     -0.55328453	     72.64988716	     -6.65593001	      3.82482104	     74.55166730	      1.30117206	     26.71301065	     -5.35469155	     -7.39119380	     67.52980111	     -3.78289583	      1.76024004	     71.47581948	      1.24748839	     23.80253772	    -13.85816232	     -7.39119380	    -31.42759155	     -1.61886951	     -1.00066252	     78.95343064	     -1.15870422	     13.38295575	    110.83399796	    101.13541128	     80.00880061	     -9.82889544	     24.28489685	    111.10932627	    113.33568875
      1.34000000	    -22.95917334	      2.87348670	      0.64857117	     -0.29148257	      0.78234816	     -0.55178053	     70.61797163	     -6.61134591	      3.66960780	     73.38895490	      1.28087890	     26.19665054	     -5.54935595	     -7.39239710	     65.29966614	     -3.81161726	      1.50597159	     70.00131169	      1.22175337	     23.12974495	    -13.92579846	     -7.39239710	    -30.37059603	     -1.58375530	     -0.93852422	     74.99498032	     -2.51756125	     13.04731842	    114.13105732	    101.30193894	     75.56956544	    -12.15739899	     24.86967927	    115.37692177	    113.65095338
      1.35000000	    -22.16052510	      3.21335037	      0.63850078	     -0.28405303	      0.79278323	     -0.55092464	     68.39852324	     -6.87747618	      3.57090557	     71.93217792	      1.25545334	     25.63099145	     -5.57323294	     -7.39309877	     62.82605317	     -3.59342262	      1.09580068	     68.09275755	      1.18844282	     22.40263978	    -13.79149245	     -7.39309877	    -29.20435660	     -1.63187346	     -1.14016806	     70.64292007	     -4.07742959	     12.85660005	    116.87202934	    101.49928898	     70.69761639	    -14.80906376	     25.61848646	    119.09184278	    113.97829774
      1.36000000	    -21.60586430	      3.90129917	      0.75254308	     -0.27648422	      0.80393004	     -0.55062495	     66.48526207	     -7.54608808	      3.65791227	     70.39544747	      1.22863234	     24.26207657	     -6.20014295	     -7.39688802	     60.42109841	     -2.91262097	      0.49896606	     65.79181027	      1.14828371	     20.16144449	    -15.04545201	     -7.39688802	    -27.80185152	     -1.81413963	     -2.28513263	     66.13652209	     -5.16114438	     13.26517255	    118.97164207	    101.74715475	     64.96187110	    -18.62667475	     25.73117148	    123.95950075	    113.87388339
      1.37000000	    -21.06470849	      4.46937754	      0.81563694	     -0.26884406	      0.81624563	     -0.54992624	     64.33806768	     -8.10887863	      3.63279079	     68.42835281	      1.19430006	     23.22103996	     -6.06669405	     -7.39841419	     57.91603755	     -2.42713335	     -0.04704481	     63.21706765	      1.10334597	     18.69731823	    -14.81968488	     -7.39841419	    -26.30776413	     -2.08992768	     -2.82944347	     61.09709965	     -7.04650992	     13.33861426	    121.03939762	    101.87716744	     59.26494541	    -21.77213122	     26.40499929	    127.27604887	    114.01797515
      1.38000000	    -20.58884541	      4.98698751	      0.77261667	     -0.26128104	      0.82958352	     -0.54846339	     62.12923615	     -8.47952365	      3.53423332	     66.09816190	      1.15363055	     21.44553827	     -6.60928699	     -7.40297496	     55.37377415	     -2.13072037	     -0.67382549	     60.29293361	      1.05231021	     15.95411578	    -15.48696635	     -7.40297496	    -24.72879420	     -2.32093880	     -3.69186772	     56.07619794	     -8.42791297	     13.75945219	    121.89101825	    101.77034882	     52.89237983	    -25.17850498	     26.33433323	    130.46170366	    113.66281595
      1.39000000	    -20.09788180	      5.48573618	      0.67190825	     -0.25356973	      0.84419326	     -0.54647966	     59.72760590	     -8.77836751	      3.39533071	     63.41976074	      1.10688364	     19.58924756	     -6.96673863	     -7.40699853	     52.68893269	     -2.02734840	     -1.53533858	     57.07032590	      0.99606509	     13.35839289	    -15.16813178	     -7.40699853	    -23.13730837	     -2.79271037	     -4.15197063	     50.53766817	    -10.05970622	     13.64664308	    122.42359566	    101.79032839	     46.71918980	    -27.91497663	     26.59560470	    132.39391928	    113.47018929
      1.40000000	    -19.59233606	      5.97268471	      0.63846674	     -0.24562503	      0.86006532	     -0.54448735	     57.09491901	     -9.21831734	      3.05958891	     60.36935139	      1.05364395	     17.84233402	     -6.56026806	     -7.40814951	     49.87944194	     -1.95396862	     -2.52109407	     53.56633537	      0.93490892	     10.78048507	    -13.74465522	     -7.40814951	    -21.57431777	     -3.35552009	     -4.24773391	     44.53994883	    -11.88448520	     12.91664466	    122.56584808	    101.84035398	     40.82688879	    -30.01826575	     27.17275415	    133.08331636	    113.48247328
      1.41000000	    -19.19074843	      6.42253991	      0.74268703	     -0.23769436	      0.87703657	     -0.54275898	     54.30129469	     -9.70506543	      2.65291881	     56.80774535	      0.99148220	     15.25552428	     -6.68384688	     -7.41036110	     47.07408914	     -1.77132826	     -3.48453592	     49.61929519	      0.86602007	      7.03237927	    -13.05069413	     -7.41036110	    -19.99434457	     -3.78946854	     -4.63831724	     38.54273138	    -13.27173921	     12.27225517	    121.61625561	    101.98381324	     34.59618379	    -31.85633313	     27.46354962	    133.16082577	    113.27131435
      1.42000000	    -18.72070341	      6.79269760	      0.95862674	     -0.22977462	      0.89508476	     -0.54092164	     51.12940836	    -10.25783804	      2.00295251	     52.73236207	      0.92035334	     12.66624939	     -6.09562403	     -7.41189838	     44.17011925	     -1.61418861	     -4.43206450	     45.46846779	      0.79357447	      2.99775823	    -11.43021965	     -7.41189838	    -18.60818954	     -4.12611648	     -4.89055637	     32.42175137	    -14.24296047	     11.08530791	    119.86645457	    102.09166245	     28.65990406	    -33.11333248	     27.59374466	    132.32455091	    113.11182934
      1.43000000	    -18.40744341	      7.13634563	      1.14801411	     -0.22202831	      0.91372726	     -0.53836053	     47.84331129	    -10.57545240	      1.50757867	     48.00317925	      0.83781353	      9.14124784	     -6.63400272	     -7.41603888	     41.37914207	     -1.57540501	     -5.66783775	     40.91966861	      0.71418295	     -2.80492305	    -10.92293917	     -7.41603888	    -17.17732542	     -4.52887893	     -5.57829696	     26.84916258	    -14.51744197	     10.07848375	    116.82131713	    102.97805438	     22.25899434	    -34.10717345	     26.78897347	    131.12392619	    113.04377296
      1.44000000	    -18.13733891	      7.33838664	      1.43680875	     -0.21430461	      0.93291979	     -0.53545608	     44.25747119	    -10.75803151	      1.00500210	     42.70743411	      0.74538534	      6.51484599	     -5.23861448	     -7.41702214	     38.73671005	     -1.71921682	     -6.86679321	     36.37218985	      0.63481447	     -7.50558372	     -7.65299805	     -7.41702214	    -15.70148432	     -4.94989285	     -5.70058806	     20.95787543	    -14.44260003	      8.25525193	    113.34719416	    102.82904332	     17.39304214	    -34.24059329	     26.79304308	    128.64339120	    112.67811163
